<svg id="Layer_1" enable-background="new 0 0 511.369 511.369" height="512" viewBox="0 0 511.369 511.369" width="512" xmlns="http://www.w3.org/2000/svg"><path d="m490.351.026h-317.334c-24.638 0-44.714 19.901-44.997 44.473-.005.285-.003-9.955-.003 315.194 0 25.027 20.478 45 44.789 45h317.545c11.598 0 21-9.402 21-21v-362.667c0-11.597-9.402-21-21-21z" fill="#f1ebeb"/><path d="m479.221 3.219-170.667 106.667c-6.14 3.837-9.87 10.567-9.87 17.808v362.666c0 16.565 18.279 26.467 32.13 17.808l170.667-106.667c6.14-3.837 9.87-10.567 9.87-17.808v-362.667c0-16.462-18.158-26.544-32.13-17.807z" fill="#7be3d4"/><path d="m362.018 287.36c-11.598 0-21-9.402-21-21v-21.334c0-11.598 9.402-21 21-21s21 9.402 21 21v21.334c0 11.598-9.403 21-21 21z" fill="#5caa9f"/><g fill="#ccc"><path d="m138.351 191.36h-117.334c-11.598 0-21-9.402-21-21s9.402-21 21-21h117.334c11.598 0 21 9.402 21 21s-9.402 21-21 21z"/><path d="m191.668 234.027c-16.971 0-27.311-19.565-16.783-33.602l22.55-30.065-22.55-30.067c-6.959-9.278-5.078-22.44 4.2-29.399 9.28-6.959 22.44-5.076 29.399 4.2l32 42.667c5.601 7.467 5.601 17.733 0 25.2l-32 42.666c-4.125 5.5-10.431 8.4-16.816 8.4z"/><path d="m74.351 319.36h-53.334c-11.598 0-21-9.402-21-21s9.402-21 21-21h53.334c11.598 0 21 9.402 21 21s-9.402 21-21 21z"/></g></svg>