<?xml version="1.0" encoding="iso-8859-1"?>
<!-- Generator: Adobe Illustrator 19.0.0, SVG Export Plug-In . SVG Version: 6.00 Build 0)  -->
<svg version="1.1" id="Capa_1" xmlns="http://www.w3.org/2000/svg" xmlns:xlink="http://www.w3.org/1999/xlink" x="0px" y="0px"
	 viewBox="0 0 512 512" style="enable-background:new 0 0 512 512;" xml:space="preserve">
<g>
	<g>
		<path d="M271,91V31H141v60H0v290h412V91H271z M171,61h70v30h-70V61z M382,351H30V121h352V351z"/>
	</g>
</g>
<g>
	<g>
		<polygon points="442,91 442,411 0,411 0,441 100,441 372,441 472,441 472,121 512,121 512,91 		"/>
	</g>
</g>
<g>
	<g>
		<path d="M100,441c-11.028,0-20,8.972-20,20s8.972,20,20,20s20-8.972,20-20S111.028,441,100,441z"/>
	</g>
</g>
<g>
	<g>
		<path d="M372,441c-11.028,0-20,8.972-20,20s8.972,20,20,20s20-8.972,20-20S383.028,441,372,441z"/>
	</g>
</g>
<g>
</g>
<g>
</g>
<g>
</g>
<g>
</g>
<g>
</g>
<g>
</g>
<g>
</g>
<g>
</g>
<g>
</g>
<g>
</g>
<g>
</g>
<g>
</g>
<g>
</g>
<g>
</g>
<g>
</g>
</svg>
