<?xml version="1.0" encoding="iso-8859-1"?>
<!-- Generator: Adobe Illustrator 19.0.0, SVG Export Plug-In . SVG Version: 6.00 Build 0)  -->
<svg version="1.1" id="Capa_1" xmlns="http://www.w3.org/2000/svg" xmlns:xlink="http://www.w3.org/1999/xlink" x="0px" y="0px"
	 viewBox="0 0 433.12 433.12" style="enable-background:new 0 0 433.12 433.12;" xml:space="preserve">
<g>
	<g>
		<path d="M403.28,316.611c-0.899-91.95-68.556-169.582-159.52-183.04c4.194-5.706,6.464-12.599,6.48-19.68
			c0.1-18.601-14.897-33.761-33.498-33.861c-18.601-0.1-33.761,14.897-33.861,33.498c-0.039,7.202,2.232,14.226,6.479,20.043
			C97.863,147.193,30.1,225.705,30,318.211c0,4.418,3.582,8,8,8h357.28c4.418,0,8-3.582,8-8
			C403.333,317.679,403.333,317.143,403.28,316.611z M198.88,113.971c0-9.764,7.916-17.68,17.68-17.68s17.68,7.916,17.68,17.68
			c0,9.764-7.916,17.68-17.68,17.68C206.796,131.651,198.88,123.735,198.88,113.971L198.88,113.971z M46.16,310.211
			c4.351-90.975,79.321-162.531,170.4-162.64v0.08c91.049,0.107,166.008,71.617,170.4,162.56H46.16z"/>
	</g>
</g>
<g>
	<g>
		<path d="M425.12,337.091H8c-4.418,0-8,3.582-8,8s3.582,8,8,8h417.12c4.418,0,8-3.582,8-8S429.538,337.091,425.12,337.091z"/>
	</g>
</g>
<g>
	<g>
		<path d="M155,176.731c-1.657-4.109-6.331-6.097-10.44-4.44c-36.864,17.74-65.707,48.696-80.8,86.72
			c-1.701,4.087,0.233,8.779,4.32,10.48s8.779-0.233,10.48-4.32c13.671-33.919,39.281-61.663,72-78
			C154.669,185.514,156.657,180.84,155,176.731z"/>
	</g>
</g>
<g>
</g>
<g>
</g>
<g>
</g>
<g>
</g>
<g>
</g>
<g>
</g>
<g>
</g>
<g>
</g>
<g>
</g>
<g>
</g>
<g>
</g>
<g>
</g>
<g>
</g>
<g>
</g>
<g>
</g>
</svg>
